<svg width="175" height="31" xmlns="http://www.w3.org/2000/svg">
 <title>Toyota</title>

 <g>
  <title>Layer 1</title>
  <path id="svg_1" d="m112.619,1.814l0,27.377" stroke-width="0.5" stroke="#717073" fill="none"/>
  <path id="svg_2" fill="#0081c8" d="m127.411,21.155a3.097,3.097 0 1 0 -2.829,3.086a3.356,3.356 0 0 1 0.003,-0.519a2.58,2.58 0 1 1 0.532,-0.113a2.565,2.565 0 0 0 -0.024,0.544a3.098,3.098 0 0 0 2.318,-2.998" class="st1a"/>
  <path id="svg_3" fill="#ee334e" d="m140.832,21.155a3.096,3.096 0 0 1 -6.183,0.272c0.184,0.019 0.362,0.058 0.533,0.113a2.58,2.58 0 1 0 -0.024,-0.545a3.184,3.184 0 0 0 -0.512,-0.088a3.097,3.097 0 0 1 6.186,0.248" class="st2a"/>
  <path id="svg_4" fill="#00a651" d="m136.956,24.154a2.581,2.581 0 1 1 -3.379,-2.613a2.58,2.58 0 0 0 0.024,-0.545a3.098,3.098 0 1 0 3.867,3.245a3.058,3.058 0 0 1 -0.512,-0.087m-2.577,-2.741c1.295,0 2.367,0.953 2.553,2.196c0.171,0.056 0.349,0.094 0.532,0.113a3.096,3.096 0 0 0 -3.353,-2.813a3.045,3.045 0 0 1 -0.002,0.518c0.089,-0.009 0.179,-0.014 0.27,-0.014" class="st3a"/>
  <path id="svg_5" fill="#fcb131" d="m130.757,24.241a3.098,3.098 0 0 1 -6.184,-0.246c0,-1.441 0.985,-2.653 2.318,-2.998a2.589,2.589 0 0 1 -0.024,0.545a2.582,2.582 0 0 0 0.803,5.035a2.58,2.58 0 0 0 2.576,-2.422c0.165,0.042 0.336,0.071 0.511,0.086m-3.358,-2.814a3.06,3.06 0 0 0 0.003,-0.519a3.097,3.097 0 0 1 3.353,2.814a2.551,2.551 0 0 1 -0.533,-0.113a2.582,2.582 0 0 0 -2.823,-2.182"/>
  <path id="svg_6" d="m131.024,23.736a2.582,2.582 0 0 1 -2.552,-2.196a2.538,2.538 0 0 0 -0.533,-0.113a3.098,3.098 0 0 0 3.353,2.813a3.349,3.349 0 0 1 0.002,-0.518c-0.089,0.01 -0.179,0.014 -0.27,0.014m0,-5.678a3.097,3.097 0 0 0 -3.087,2.851c0.175,0.015 0.346,0.045 0.511,0.088a2.58,2.58 0 1 1 3.379,2.613a2.589,2.589 0 0 0 -0.024,0.545a3.1,3.1 0 0 0 -0.779,-6.097"/>
  <path id="svg_7" fill="#fff" d="m141.968,1.814l-22.261,0l0,14.695l22.636,0l0,-14.695l-0.375,0z" class="st5a"/>
  <path id="svg_8" fill="#c42032" d="m129.17,2.189l12.797,0l0,1.072l-12.797,0l0,-1.072zm0,2.145l12.797,0l0,1.072l-12.797,0l0,-1.072zm0,2.135l12.797,0l0,1.072l-12.797,0l0,-1.072zm0,2.148l12.797,0l0,1.071l-12.797,0l0,-1.071zm-9.088,2.148l21.885,0l0,1.072l-21.885,0l0,-1.072zm0,2.134l21.885,0l0,1.072l-21.885,0l0,-1.072zm0,2.164l21.885,0l0,1.071l-21.885,0l0,-1.071z" class="st6a"/>
  <path id="svg_9" fill="#152c53" d="m120.082,2.189l9.089,0l0,7.499l-9.089,0l0,-7.499z" class="st7a"/>
  <path id="svg_10" fill="#fff" d="m121.485,3.556l0.371,0l-0.297,0.227l0.114,0.364l-0.295,-0.224l-0.296,0.224l0.116,-0.364l-0.299,-0.227l0.365,0l0.114,-0.353l0.107,0.353zm0.002,2.263l0.369,0l-0.298,0.228l0.116,0.364l-0.297,-0.224l-0.295,0.224l0.118,-0.364l-0.301,-0.228l0.368,0l0.11,-0.356l0.11,0.356zm-0.002,2.26l0.371,0l-0.297,0.227l0.114,0.364l-0.295,-0.223l-0.296,0.223l0.116,-0.364l-0.299,-0.227l0.365,0l0.114,-0.353l0.107,0.353zm3.269,-4.523l0.371,0l-0.298,0.227l0.115,0.364l-0.295,-0.224l-0.296,0.224l0.116,-0.364l-0.299,-0.227l0.365,0l0.114,-0.353l0.107,0.353zm0.002,2.263l0.369,0l-0.298,0.228l0.116,0.364l-0.297,-0.224l-0.295,0.224l0.117,-0.364l-0.3,-0.228l0.368,0l0.11,-0.356l0.11,0.356zm-0.002,2.26l0.371,0l-0.298,0.227l0.115,0.364l-0.295,-0.223l-0.296,0.223l0.116,-0.364l-0.299,-0.227l0.365,0l0.114,-0.353l0.107,0.353zm3.272,-4.523l0.368,0l-0.296,0.227l0.118,0.364l-0.299,-0.224l-0.295,0.224l0.117,-0.364l-0.302,-0.227l0.369,0l0.111,-0.353l0.109,0.353zm-0.002,2.263l0.37,0l-0.298,0.228l0.119,0.363l-0.3,-0.223l-0.294,0.223l0.118,-0.363l-0.302,-0.228l0.369,0l0.109,-0.356l0.109,0.356zm0.002,2.26l0.368,0l-0.296,0.228l0.118,0.364l-0.299,-0.224l-0.295,0.224l0.117,-0.364l-0.302,-0.228l0.369,0l0.111,-0.355l0.109,0.355zm-4.904,-3.391l0.368,0l-0.297,0.229l0.115,0.363l-0.296,-0.223l-0.296,0.223l0.118,-0.363l-0.301,-0.229l0.368,0l0.111,-0.355l0.11,0.355zm-0.003,2.261l0.371,0l-0.297,0.227l0.114,0.365l-0.294,-0.224l-0.297,0.224l0.117,-0.365l-0.3,-0.227l0.365,0l0.115,-0.353l0.106,0.353zm3.272,-2.261l0.369,0l-0.298,0.229l0.115,0.363l-0.296,-0.223l-0.296,0.223l0.118,-0.363l-0.301,-0.229l0.368,0l0.111,-0.355l0.11,0.355zm-0.003,2.261l0.372,0l-0.298,0.227l0.114,0.365l-0.294,-0.224l-0.296,0.224l0.116,-0.365l-0.299,-0.227l0.365,0l0.114,-0.353l0.106,0.353zm45.237,-5.135l-22.261,0l0,14.695l22.636,0l0,-14.695l-0.375,0z" class="st5a"/>
  <path id="svg_11" fill="#c42032" d="m158.827,2.189l12.797,0l0,1.072l-12.797,0l0,-1.072zm0,2.145l12.797,0l0,1.072l-12.797,0l0,-1.072zm0,2.135l12.797,0l0,1.072l-12.797,0l0,-1.072zm0,2.148l12.797,0l0,1.071l-12.797,0l0,-1.071zm-9.088,2.148l21.885,0l0,1.072l-21.885,0l0,-1.072zm0,2.134l21.885,0l0,1.072l-21.885,0l0,-1.072zm0,2.164l21.885,0l0,1.071l-21.885,0l0,-1.071z" class="st6a"/>
  <path id="svg_12" fill="#152c53" d="m149.739,2.189l9.089,0l0,7.499l-9.089,0l0,-7.499z" class="st7a"/>
  <path id="svg_13" fill="#fff" d="m151.142,3.556l0.371,0l-0.297,0.227l0.114,0.364l-0.295,-0.224l-0.296,0.224l0.116,-0.364l-0.299,-0.227l0.365,0l0.114,-0.353l0.107,0.353zm0.002,2.263l0.37,0l-0.298,0.228l0.115,0.364l-0.297,-0.224l-0.295,0.224l0.118,-0.364l-0.301,-0.228l0.368,0l0.11,-0.356l0.11,0.356zm-0.002,2.26l0.371,0l-0.297,0.227l0.114,0.364l-0.295,-0.223l-0.296,0.223l0.116,-0.364l-0.299,-0.227l0.365,0l0.114,-0.353l0.107,0.353zm3.269,-4.523l0.371,0l-0.297,0.227l0.114,0.364l-0.295,-0.224l-0.296,0.224l0.117,-0.364l-0.3,-0.227l0.365,0l0.114,-0.353l0.107,0.353zm0.002,2.263l0.369,0l-0.298,0.228l0.116,0.364l-0.297,-0.224l-0.295,0.224l0.117,-0.364l-0.3,-0.228l0.368,0l0.11,-0.356l0.11,0.356zm-0.002,2.26l0.371,0l-0.297,0.227l0.114,0.364l-0.295,-0.223l-0.296,0.223l0.117,-0.364l-0.3,-0.227l0.365,0l0.114,-0.353l0.107,0.353zm3.273,-4.523l0.367,0l-0.296,0.227l0.118,0.364l-0.299,-0.224l-0.295,0.224l0.117,-0.364l-0.302,-0.227l0.369,0l0.111,-0.353l0.11,0.353zm-0.003,2.263l0.37,0l-0.297,0.228l0.118,0.363l-0.299,-0.223l-0.295,0.223l0.118,-0.363l-0.302,-0.228l0.37,0l0.109,-0.356l0.108,0.356zm0.003,2.26l0.367,0l-0.296,0.228l0.118,0.364l-0.299,-0.224l-0.295,0.224l0.117,-0.364l-0.302,-0.228l0.369,0l0.111,-0.355l0.11,0.355zm-4.905,-3.391l0.369,0l-0.298,0.229l0.115,0.363l-0.296,-0.223l-0.296,0.223l0.118,-0.363l-0.301,-0.229l0.368,0l0.111,-0.354l0.11,0.354zm-0.003,2.261l0.371,0l-0.297,0.227l0.114,0.365l-0.294,-0.224l-0.297,0.224l0.117,-0.365l-0.3,-0.227l0.365,0l0.115,-0.353l0.106,0.353zm3.272,-2.261l0.369,0l-0.298,0.229l0.115,0.363l-0.296,-0.223l-0.296,0.223l0.118,-0.363l-0.3,-0.229l0.367,0l0.111,-0.354l0.11,0.354zm-0.003,2.261l0.372,0l-0.298,0.227l0.114,0.365l-0.294,-0.224l-0.296,0.224l0.116,-0.365l-0.299,-0.227l0.365,0l0.114,-0.353l0.106,0.353z" class="st5a"/>
  <path id="svg_14" fill="#ee334e" d="m159.931,18.149c-1.086,-0.25 -2.568,0.025 -3.969,0.834c-2.191,1.265 -3.352,3.356 -2.593,4.671c0.485,0.84 1.637,1.16 2.977,0.951c-0.613,-0.141 -1.099,-0.449 -1.373,-0.924c-0.759,-1.315 0.402,-3.406 2.593,-4.671c0.791,-0.456 1.608,-0.743 2.365,-0.861" class="st2a"/>
  <path id="svg_15" fill="#00a651" d="m159.95,23.336c0.326,1.065 1.306,2.211 2.707,3.02c2.191,1.265 4.583,1.225 5.342,-0.09c0.485,-0.84 0.186,-1.997 -0.665,-3.053c0.184,0.601 0.16,1.177 -0.114,1.651c-0.759,1.315 -3.151,1.355 -5.342,0.09c-0.791,-0.457 -1.448,-1.021 -1.928,-1.618" class="st3a"/>
  <path id="svg_16" fill="#0081c8" d="m158.464,20.756c-0.759,0.815 -1.262,2.237 -1.262,3.854c0,2.53 1.231,4.581 2.749,4.581c0.97,0 1.823,-0.838 2.312,-2.102c-0.429,0.46 -0.939,0.727 -1.487,0.727c-1.518,0 -2.749,-2.051 -2.749,-4.581c0,-0.914 0.161,-1.765 0.437,-2.479" class="st1a"/>
  <g id="svg_17">
   <path id="svg_18" d="m97.564,16.363l1.605,-4.208l1.602,4.208l-3.207,0zm3.271,-6.597l-3.333,0l-4.658,11.409l2.887,0l1.061,-2.784l4.752,0l1.061,2.784l2.886,0l-4.656,-11.409zm-23.508,9.425c-1.881,0 -3.403,-1.696 -3.403,-3.79c0,-2.094 1.522,-3.791 3.403,-3.791c1.878,0 3.402,1.697 3.402,3.791s-1.525,3.79 -3.402,3.79m0,-9.817a6.027,6.027 0 0 0 0,12.052a6.027,6.027 0 1 0 0,-12.052m-23.786,9.817c-1.878,0 -3.401,-1.696 -3.401,-3.79c0,-2.094 1.523,-3.791 3.401,-3.791c1.88,0 3.403,1.697 3.403,3.791c0.001,2.094 -1.523,3.79 -3.403,3.79m0,-9.817a6.025,6.025 0 0 0 -6.025,6.027a6.026,6.026 0 1 0 6.025,-6.027m14.899,0.392l-2.953,4.616l-2.956,-4.616l-2.888,0l4.572,7.155l0,4.254l2.543,0l0,-4.254l4.572,-7.156l-2.89,0l0,0.001zm25.012,0l-9.756,0l0,2.188l3.614,0l0,9.222l2.545,0l0,-9.222l3.598,0l0,-2.188l-0.001,0zm-56.225,2.187l3.615,0l0,9.222l2.544,0l0,-9.222l3.599,0l0,-2.187l-9.757,0l0,2.187l-0.001,0z"/>
   <path id="svg_19" d="m3,1.809l27.381,0l0,27.381l-27.381,0l0,-27.381z" fill="#eb0a1e"/>
   <path id="svg_20" fill="#fff" d="m21.257,9.528c-1.271,-0.409 -2.852,-0.65 -4.566,-0.65s-3.296,0.241 -4.566,0.65c-3.38,1.087 -5.702,3.343 -5.702,5.951c0,3.668 4.597,6.643 10.269,6.643c5.67,0 10.267,-2.975 10.267,-6.643c0,-2.608 -2.323,-4.864 -5.702,-5.951m-4.566,9.737c-0.846,0 -1.538,-1.664 -1.578,-3.755a17.561,17.561 0 0 0 3.156,0c-0.041,2.092 -0.732,3.755 -1.578,3.755m-1.471,-5.391c0.231,-1.468 0.802,-2.507 1.471,-2.507c0.668,0 1.24,1.04 1.47,2.507a16.18,16.18 0 0 1 -2.941,0m3.841,-0.111c-0.343,-2.304 -1.275,-3.955 -2.37,-3.955c-1.095,0 -2.027,1.651 -2.37,3.955c-2.086,-0.326 -3.544,-1.067 -3.544,-1.93c0,-1.163 2.648,-2.106 5.914,-2.106c3.266,0 5.914,0.943 5.914,2.106c0,0.863 -1.458,1.604 -3.544,1.93m-11.14,1.472c0,-1.125 0.433,-2.178 1.188,-3.085a1.338,1.338 0 0 0 -0.013,0.19c0,1.415 2.125,2.617 5.088,3.059c-0.002,0.107 -0.004,0.214 -0.004,0.322c0,2.63 0.73,4.858 1.738,5.626c-4.482,-0.273 -7.997,-2.904 -7.997,-6.112m9.543,6.113c1.008,-0.768 1.738,-2.996 1.738,-5.626c0,-0.108 -0.001,-0.215 -0.004,-0.322c2.962,-0.442 5.087,-1.645 5.087,-3.059c0,-0.064 -0.005,-0.127 -0.014,-0.19c0.755,0.907 1.188,1.961 1.188,3.085c0.001,3.207 -3.514,5.838 -7.995,6.112" class="st5a"/>
  </g>
 </g>
</svg>